<svg width="101" height="97" viewBox="0 0 101 97" fill="none" xmlns="http://www.w3.org/2000/svg">
<path d="M59.043 47.655C70.475 36.223 89.0094 36.2231 100.441 47.655L64.2178 83.8787C57.5553 90.5412 48.4802 93.3198 39.8047 92.2166C33.3025 91.5757 26.9737 88.7654 21.9932 83.7849L0 61.7917C11.4321 50.3597 29.9674 50.3597 41.3994 61.7917L43.1523 63.5447L59.043 47.655Z" fill="#1F65F1"/>
<circle cx="42.9957" cy="19.2108" r="19.2108" fill="#1F65F1"/>
<path d="M59.0435 47.6551C70.4755 36.2232 89.0098 36.2232 100.442 47.6551L64.2183 83.8788C57.5559 90.5412 48.4806 93.3197 39.8052 92.2167C33.4936 91.5946 27.3453 88.9277 22.4351 84.2167L43.1294 63.5214L43.1528 63.5448L59.0435 47.6551Z" fill="#464646"/>
</svg>
